<?xml version="1.0" encoding="utf-8"?>
<!-- Generator: Adobe Illustrator 21.1.0, SVG Export Plug-In . SVG Version: 6.00 Build 0)  -->
<svg version="1.1" id="Layer_1" xmlns="http://www.w3.org/2000/svg" xmlns:xlink="http://www.w3.org/1999/xlink" x="0px" y="0px"
	 viewBox="0 0 244 538" style="enable-background:new 0 0 244 538;" xml:space="preserve">
<style type="text/css">
	.st0{fill:none;stroke:#000000;stroke-width:2;stroke-miterlimit:10;}
</style>
<g>
	<path class="st0" d="M124.4,11.6c-0.9,4.2-1.5,8.3-1.5,12.6c0.1,9.7,2.3,19.3,1.3,29c-0.1,1.2,0.1,2.6,1.2,3.3
		c3.6,2.2,3.9,7.2,7.9,8.9c0.3,0.1,0.6,0.7,0.6,1c-1.2,5.4,1.8,10.2,2.1,15.3c0,0.9,0.1,2-0.7,2.7c-5,4.7-5,10.9-4.8,16.9
		c0.3,12,0.9,24.1,1.5,36.1c1,20.7,2,41.3,3,62c0.8,16.6,1.6,33.2,2.7,49.8c1.9,29.8,4.2,59.6,9,89.1c0.3,2.1,1.1,3.3,3.6,3.3
		c3.1,0,4.5,2.8,2.5,4.8c-2.9,2.9-3,6.5-2.2,9.8c5.9,23,10.3,46.5,18.4,68.9c1.1,2.9,2.5,4.3,5.6,3.9c3.3-0.4,4.5,1.1,4.5,4.4
		c-0.1,2.8-1.1,6,1.6,8.4c0.8,0.7-0.1,1.5-0.4,2.2c-3.3,7.5,1.2,14.8,5.3,19.6c1,1.1,2.2,0.9,3.4,0.9c2.3,0,4.5,0,6.9,0.5
		c-2.1,1.8-2.3,5.8-6.4,4.7c-1.2-0.3-1.1,1.1-0.9,1.7c0.3,1.3,0.9,2.5,1.5,3.7c7.2,14.7,14.4,29.4,21.5,44.2
		c1.3,2.7,2.8,4.9,5.6,6.1c0.7,0.3,1.5,0.8,2,1.4c1,1.2,2.3,2.8,1.8,4.2c-0.4,1.4-2.4,0.7-3.7,0.7c-11,0-21.9-0.1-32.9,0.1
		c-3.6,0.1-4.9-1.7-4.1-4.6c1.9-6.6,0-12.6-2.1-18.6c-7.4-20.8-31.3-39.7-59.9-38c-25.7,1.5-48.9,20-54.8,44.9
		c-0.8,3.6-1.1,7.2-0.3,10.9c0.9,4.4,0.1,5.4-4.2,5.4c-10.8,0-21.7,0-32.5,0c-1.3,0-3.1,0.7-3.6-0.8c-0.3-1,0.4-3,1.3-3.6
		c10.5-6.3,12.2-18.1,17.3-27.6c7.6-14,14.1-28.6,21.1-43c0.8-1.7,1.9-3.4,1.5-5.4c-1.3-6.1,1-12.1,0.7-18.2
		c-0.1-2.9,0.9-4.5,3.9-4.1c3.5,0.4,4.9-1.2,6.1-4.4c8-22.1,12.2-45.1,18.2-67.7c0.9-3.5,0.7-7.2-2-10.4c-2-2.4-0.9-5,2.2-4.9
		c2.9,0,3.3-1.5,3.6-3.6c2.5-16.8,4.9-33.7,6.1-50.7c1.5-21.2,3.2-42.3,4.6-63.5c0.8-12.1,1.2-24.3,1.8-36.5
		c1.1-22.2,2.2-44.3,3.1-66.5c0.4-8.4,0.3-16.8,0.2-25.2c-0.1-4.2-1-8.2-4.4-11.4c-2.3-2.1-0.8-5.1-0.1-7.7c0.3-1,1.3-2.1,1.1-2.9
		c-1.3-7.8,4.3-12,8.6-16.9c1-1.1,1.5-2.3,1.5-3.6c0-7.4,0.1-14.7,1.1-22.1c0.9-6.5,1.2-13.3-1.9-19.6
		C120.6,11.6,122.5,11.6,124.4,11.6z M121.9,429.1c6.1,0,12.2,0,18.2,0c2,0,3.4-0.2,2.8-2.9c-3.6-17-6.3-34.2-9-51.4
		c-0.4-2.4-1.4-3.2-3.7-3.2c-5.1,0.1-10.3,0.3-15.4-0.1c-3.9-0.2-5.2,1.5-5.7,5c-2.3,16.4-5.2,32.8-8.4,49.1
		c-0.6,2.9,0.3,3.6,2.9,3.6C109.8,429,115.9,429.1,121.9,429.1z"/>
</g>
</svg>
