<?xml version="1.0" encoding="utf-8"?>
<!-- Generator: Adobe Illustrator 21.1.0, SVG Export Plug-In . SVG Version: 6.00 Build 0)  -->
<svg version="1.1" id="Layer_1" xmlns="http://www.w3.org/2000/svg" xmlns:xlink="http://www.w3.org/1999/xlink" x="0px" y="0px"
	 viewBox="0 0 118.8 287.8" style="enable-background:new 0 0 118.8 287.8;" xml:space="preserve">
<style type="text/css">
	.st0{fill:none;stroke:#000000;stroke-width:2;stroke-miterlimit:10;}
</style>
<g>
	<path class="st0" d="M36.8,16.7c0.5,1.1,0.2,2.5-0.6,3.2c-0.5,0.4-1,0.8-1.2,1.4c-0.6,1.3-1.2,2.4-2.3,3.3
		c-0.4,0.3-0.4,0.8-0.5,1.2c0,0.1,0,0.2,0.1,0.4c0.7-0.3,0.9,0.8,1.7,0.5c0.3-0.1,1.2-0.3,1.3,0.6c0,0.1,0.3,0.1,0.5,0.1
		c0.5,0,1,0.7,0.6,1.1c-0.6,0.7-0.4,1.4-0.1,2.2c0.6,1.2,0.2,2.2-1,2.7c-0.4,0.2-0.8,0.3-1.2,0.4c-0.6,0.1-1.2,0.2-0.9,1.1
		c0,0.1-0.1,0.4-0.2,0.5c-0.8,1.1-0.7,1.2,0.3,2.1c0.3,0.3,0.6,0.6,0.8,1c1.3,2.8,2.5,5.7,3.3,8.7c0.9,3.2,2.4,6.2,3.9,9.1
		c0.1,0.2,0.2,0.4,0.4,0.5c0.1,0.1,0.1,0.2,0.2,0.2c1.2,2.4,2.5,4.7,2.9,7.4c0.1,0.5,0.4,0.6,0.9,0.4c1.2-0.5,2.5-0.8,3.7-1.1
		c0.4-0.1,0.8-0.2,0.8-0.7c0-0.5,0.2-1.1-0.4-1.5c-0.4-0.3-0.7-0.5-1.1-0.7c-1.5-0.7-3-1.6-4.5-2.4c-0.5-0.2-1-0.4-1.2-1
		c0.1-0.3,0.3-0.3,0.5-0.2c2.4,0.7,4.7,1.7,7.1,2.6c0.4,0.2,2-0.4,2.2-0.8c0.1-0.3-0.2-0.4-0.3-0.6c-1.4-1.8-2.7-3.7-4.1-5.5
		c-0.1-0.2,0-0.3,0.3-0.3c1.8,1.7,3.5,3.4,5.2,5.3c0.8,0.9,1.7,0.7,2.7,0.8c0.5,0,0.3-0.4,0.3-0.7c0.1-1.9,0.2-3.7,0.6-5.6
		c0.3,1.2,0.5,2.5,0.8,3.7c0.1,0.7,0.3,1.5,0.4,2.3c0,0.8,0.5,1.2,1.1,1.6c1.1,0.7,1.9,0.6,2.9-0.2c1.1-0.9,2.4-1.8,3.7-2.5
		c-0.8,1.1-1.6,2.3-2.4,3.4c-0.3,0.5-0.4,0.8,0.2,1.1c0.2,0.1,0.3,0.1,0.4,0.3c1,1.4,2.4,1.1,3.8,0.9c1.3-0.2,2.6-0.2,3.8-0.3
		c0,0.1,0,0.2,0.1,0.3c-0.5,0.2-1,0.4-1.6,0.6c-1,0.4-2.1,0.7-3.1,1.1c-0.5,0.2-0.7,0.4-0.5,0.9c0.6,1.5,0.7,3.1,0.2,4.7
		c-0.1,0.3-0.1,0.4,0.2,0.6c1.8,0.8,1.8,2.4,1.6,4c-0.2,1-0.6,1.9-0.3,3c0.1,0.6-0.2,1.2-0.8,1.5c-0.5,0.3-0.5,0.5-0.2,0.9
		c0.4,0.5,0.7,1,1.1,1.5c0.2,0.2,0.3,0.3,0.7,0.2c0.7-0.2,1.2,0.2,1.8,0.5c2.6,1.5,4.6,3.7,6.5,6c1.3,1.6,1.7,3.6,2.8,5.2
		c0.2,0.3,0.2,0.6,0.6,0.8c0.2-0.4,0.3-0.7,0.5-1c0.4-1.1,0.9-1.2,1.9-0.8c0.4,0.2,0.3,0.5,0.3,0.8c-0.2,1.1-0.5,2.2-0.9,3.3
		c-0.2,0.5-0.2,0.9,0.1,1.4c0.7,1.1,1.3,2.2,1.7,3.4c0.2,0.7,0.9,0.9,1.2,1.1c1,0.7,1,1.7,1.1,2.5c0.2,1.6,1,3,1.7,4.3
		c0.8,1.6,1.2,3.2,1.1,5c-0.2,2.7-1.3,5.2-1.6,7.9c-0.2,1.5-1,3-1.7,4.4c-0.7,1.5-2,2.4-3.7,2.8c-0.7,0.2-1.4-0.1-2.2-0.3
		c0.1,1.9,0.2,3.7,0.3,5.4c0.4,5.7,0.6,11.5,1.2,17.2c0.1,1.1,0.2,2.2,0.3,3.3c0.1,0.8,0.3,1.6-0.2,2.5c-0.3,0.5-0.1,1.3,0,2
		c0.3,2.1,0.5,4.2,0.8,6.2c0.1,0.6,0,1-0.4,1.5c-0.6,0.9-0.8,1.9-0.6,3c0.5,3.6,1.2,7.2,1.3,10.8c0.1,3.5,1,6.8,1.7,10.2
		c0.4,1.6,1.5,2.8,3.3,3c1.9,0.2,3.8,0.8,5.7,1c0.7,0.1,1,0.7,1,1.4c0,1.1,0.1,2.1,0,3.2c0,0.8,0.3,1.2,1,1.4
		c0.3,0.1,0.6,0.2,0.9,0.4c0.7,0.4,1,0.9,0.8,1.7c-0.2,0.5-0.3,1.1-0.6,1.5c-1.4,1.7-0.7,3.6-0.7,5.4c0,0.1,0,0.2,0,0.2
		c1.5,1.2,1.2,3,1.4,4.6c0.5-0.1,0.8-0.3,1.2-0.4c0.8-0.2,1.5,0.1,1.7,0.9c0.1,0.4,0.3,0.6,0.8,0.6c1.6,0.2,3.1,0.4,4.7,0.6
		c0.3,0,0.6,0.1,0.8-0.2c0.6-1.2,1.7-0.8,2.5-0.8c0.6,0,0.9,0.6,0.9,1.2c0.1,1.9,0.1,3.8,0.1,5.7c0,0.2,0,0.5-0.2,0.5
		c-1.1,0.5-0.8,1.5-0.7,2.4c0,0.7-0.1,1-0.9,1c-2-0.2-3,1.3-4.4,2.2c-0.2,0.1-0.2,0.3-0.2,0.5c-0.3,2.3-0.8,4.6-0.5,7
		c0.6,5.8,1.1,11.6,1.4,17.4c0.1,1,0.3,1.5,1.3,1.6c0.3,0,0.7,0.1,0.8,0.6c0.1,0.5-0.2,0.6-0.5,0.8c-0.3,0.2-0.7,0.5-0.7,1
		c0,2-0.5,4-0.2,6.1c0.2,1.2,0.2,2.4,0.3,3.6c0.1,0.7,0,1.4,0.8,1.8c0.4,0.2,0.3,2-0.1,2.6c-29.4,0-58.9,0-88.3,0
		c-0.4-0.6-0.5-1.5-0.1-2c0.9-1.2,0.8-2.5,0.9-3.8c0.1-1.6,0.3-3.1,0.3-4.7c0-1.1-0.5-2-0.3-3.1c0.1-0.4-0.3-0.6-0.6-0.9
		c-0.7-0.7-0.6-1.4,0.3-1.7c1-0.4,1.3-1,1.3-2c0.1-3.6,0.4-7.2,0.7-10.7c0.3-3,0.4-6,0.6-9.1c0.1-1.3-0.3-2.5-0.4-3.7
		c0-0.3-0.2-0.6-0.5-0.7c-0.6-0.4-1.2-0.8-1.7-1.4c-0.4-0.5-1-0.4-1.6-0.4c-1.5,0-1.7-0.2-1.7-1.7c0-0.6-0.2-1.1-0.5-1.7
		c-0.6-1.2-0.6-2.4-0.5-3.7c0.1-0.9,0.2-1.8,0.2-2.7c0-1.2,0.4-1.5,1.6-1.6c0.7,0,1.5,0,2.1,0.5c0.4,0.3,0.8,0.3,1.2,0.2
		c0.6-0.1,1.3-0.2,1.9-0.3c0.8-0.1,1.3-0.3,1.7-1.1c0.5-0.9,1.7-1,2.7-0.4c0.3,0.2,0.5,0.6,0.9,0.4c0.3-0.2,0.2-0.7,0.2-1
		c0-0.5,0-1,0-1.5c0-0.7,0.1-1.4,0.7-1.9c0.6-0.5,0.8-1.2,0.7-2c0-0.6,0-1.3,0-1.9c0.1-1.1-0.1-2.1-0.8-3c-0.2-0.3-0.3-0.6-0.4-0.9
		c-0.3-0.8-0.1-1.4,0.7-1.6c1.8-0.4,1.9-1.7,1.9-3.1c0-0.4,0-0.8-0.1-1.2c-0.1-1.2,0.2-1.7,1.4-2c2-0.5,4-1,6-1.3
		c2.4-0.4,3.8-1.9,4.7-4c0.4-0.9,0.6-1.9,0.9-2.9c0.8-3.3,1.5-6.7,1.6-10.1c0.1-2.1,0.3-4.2,0.4-6.4c0-2.2,0.3-4.4,0.5-6.6
		c0.1-1.6,0.2-3.2-0.7-4.7c-1.1-2-1.4-4.3-1.8-6.5c-0.4-2.1-0.9-4.1-0.5-6.2c0.1-0.8,0-1.6-0.1-2.4c-0.4-1.7-0.4-3.5-0.6-5.3
		c-0.3-2.6-0.8-5.1-1.4-7.7c-0.7-3-1-6-1-9c0-0.9,0.1-1.8,0.2-2.7c0.4-2.1-0.2-4.2-0.3-6.2c-0.2-2.6,0.2-5.2,0.7-7.7
		c0.6-2.6,1.6-5.1,2.9-7.5c0.3-0.6,0.4-1.2,0.2-1.9c-0.3-0.8-0.4-1.6-0.7-2.4c-0.2-0.6-0.4-1.2-0.3-1.9c0.3-1.7-0.6-3-1.1-4.5
		c-0.2-0.5-0.7-0.6-1.2-0.6c-1.5,0.1-1.9-0.4-1.8-1.9c0-0.2,0.1-0.5,0-0.7c-1-2.6-0.2-5,0.7-7.4c0.5-1.3,0.5-2.4-0.1-3.6
		c-0.6-1.4-1.1-2.8-1.5-4.2c-0.1-0.3-0.2-0.6-0.3-0.8c-1.9-2.9-2.8-6.1-3.6-9.4c-0.7-3.1-1.2-6.2-1.6-9.4c-0.2,0.6-0.3,1.1-0.5,1.6
		c-0.2,0.6-0.6,1.1-1.2,1.2c-0.7,0.1-1-0.4-1.3-0.9c-0.2-0.2-0.2-0.5-0.4-0.8c-0.3-0.9-0.4-1.9-0.9-2.8c-0.2-0.5-0.1-1.1,0-1.7
		c0.3-1.5,0.3-2.8-0.6-4.2c-0.5-0.8-0.9-2-0.5-3.2c0.1-0.3,0.1-0.5-0.1-0.7c-0.3-0.6-0.2-1.1,0.3-1.6c0.5-0.5,0.5-1,0.1-1.5
		c-0.2-0.3-0.5-0.6-0.5-0.9c-0.1-0.5-0.4-0.7-0.8-0.8c-0.5-0.1-1-0.3-1.5-0.6c-1.1-0.8-1.4-1.7-0.8-2.9c0.2-0.6,0.3-1.1,0.1-1.7
		c-0.3-0.8,0-1.3,0.8-1.6c0.7-0.3,1.3-0.7,2.2-0.5c0.7,0.2,1.1-0.6,0.7-1.3c-0.2-0.4-0.6-0.7-0.8-1.1c-1.2-1.9-0.8-3.8,1.1-5
		c0.9-0.6,1.5-1.6,2.6-1.9c1.1-0.3,1.2-0.3,1.6,0.7c0.2,0.7,0.9,0.9,1.8,0.7c1.2-0.3,2.3-0.7,3-1.8C36.5,16.7,36.6,16.7,36.8,16.7z"
		/>
	<path class="st0" d="M48.6,52.8c-0.1,0.1-0.2,0.2-0.3,0.3c-0.3-0.4-0.6-0.8-0.9-1.2C48,52,48.3,52.4,48.6,52.8z"/>
	<path class="st0" d="M43.4,57.4c-0.1,0.1-0.3,0.1-0.4,0.2c-0.4,0.2-0.7,0-0.9-0.4c0-0.2,0.1-0.3,0.3-0.2
		C42.7,57.2,43,57.3,43.4,57.4z"/>
	<path class="st0" d="M42.4,57c-0.1,0.1-0.1,0.1-0.2,0.2c-0.3,0.2-0.4,0-0.6-0.1c0-0.1,0-0.2,0-0.2C41.9,56.8,42.1,56.8,42.4,57z"/>
	<path class="st0" d="M41.6,57.1c0.2,0,0.4,0.1,0.6,0.1c0.3,0.1,0.5,0.3,0.8,0.4c2.2,1.2,4.4,2.5,6.7,3.6c1.1,0.5,0.6,1.4,0.7,2.1
		c0.1,0.7-0.6,0.6-1,0.7c-1.4,0.4-2.7,0.8-4.1,1.3c-0.4,0.1-0.7,0.2-0.8-0.4c-0.4-2.8-1.7-5.2-2.9-7.7
		C41.5,57.2,41.6,57.1,41.6,57.1z"/>
	<path class="st0" d="M49.1,73.1c0.1-0.6,0-0.9-0.4-1.1c-0.6-0.4-0.6-1.1-0.7-1.7c-0.1-0.3,0-0.5,0.4-0.6c0.8-0.2,1.6-0.4,2.3-0.5
		c0.4-0.1,0.8,0.1,0.9,0.6c0.4,2.1,1.7,4,2,6.1c0.1,0.3,0.2,0.6,0.1,1c-0.1,0.5-0.3,0.6-0.7,0.4c-1.1-0.6-2.3-1.1-3-2.1
		C49.5,74.4,49.3,73.7,49.1,73.1z"/>
	<path class="st0" d="M47.7,65.6c0.7,0,1.3-0.1,2-0.1c0.6,0,0.9,0.1,0.7,0.8c-0.2,0.5,0.2,1.2-0.2,1.5c-0.7,0.5-1.5,0.8-2.3,1.2
		c-0.3,0.1-0.4-0.1-0.6-0.2c-0.7-0.6-1.1-1.5-2.2-1.8c-0.4-0.1-0.5-0.7-0.4-1c0.1-0.3,0.5-0.2,0.8-0.3C46.3,65.7,47,65.7,47.7,65.6
		C47.7,65.7,47.7,65.6,47.7,65.6z"/>
</g>
</svg>
